<mxfile host="app.diagrams.net" agent="Mozilla/5.0 (Windows NT 10.0; Win64; x64) AppleWebKit/537.36 (KHTML, like Gecko) Chrome/133.0.0.0 Safari/537.36 Edg/133.0.0.0" version="26.0.11">
  <diagram id="R2lEEEUBdFMjLlhIrx00" name="Page-1">
    <mxGraphModel dx="1820" dy="1194" grid="0" gridSize="10" guides="1" tooltips="1" connect="1" arrows="1" fold="1" page="0" pageScale="1" pageWidth="850" pageHeight="1100" math="0" shadow="0" extFonts="Permanent Marker^https://fonts.googleapis.com/css?family=Permanent+Marker">
      <root>
        <mxCell id="0" />
        <mxCell id="1" parent="0" />
        <mxCell id="5BOOuT8kR76Wdo9LUmg--1" value="Table Category" style="shape=table;startSize=30;container=1;collapsible=1;childLayout=tableLayout;fixedRows=1;rowLines=0;fontStyle=1;align=center;resizeLast=1;html=1;" vertex="1" parent="1">
          <mxGeometry x="40" y="210" width="375" height="100" as="geometry" />
        </mxCell>
        <mxCell id="5BOOuT8kR76Wdo9LUmg--2" value="" style="shape=tableRow;horizontal=0;startSize=0;swimlaneHead=0;swimlaneBody=0;fillColor=none;collapsible=0;dropTarget=0;points=[[0,0.5],[1,0.5]];portConstraint=eastwest;top=0;left=0;right=0;bottom=1;" vertex="1" parent="5BOOuT8kR76Wdo9LUmg--1">
          <mxGeometry y="30" width="375" height="40" as="geometry" />
        </mxCell>
        <mxCell id="5BOOuT8kR76Wdo9LUmg--3" value="PRIMARY KEY&lt;br&gt;AUTO_INCREMENT" style="shape=partialRectangle;connectable=0;fillColor=none;top=0;left=0;bottom=0;right=0;fontStyle=1;overflow=hidden;whiteSpace=wrap;html=1;" vertex="1" parent="5BOOuT8kR76Wdo9LUmg--2">
          <mxGeometry width="125" height="40" as="geometry">
            <mxRectangle width="125" height="40" as="alternateBounds" />
          </mxGeometry>
        </mxCell>
        <mxCell id="5BOOuT8kR76Wdo9LUmg--4" value="CategoryID" style="shape=partialRectangle;connectable=0;fillColor=none;top=0;left=0;bottom=0;right=0;align=left;spacingLeft=6;fontStyle=5;overflow=hidden;whiteSpace=wrap;html=1;" vertex="1" parent="5BOOuT8kR76Wdo9LUmg--2">
          <mxGeometry x="125" width="125" height="40" as="geometry">
            <mxRectangle width="125" height="40" as="alternateBounds" />
          </mxGeometry>
        </mxCell>
        <mxCell id="5BOOuT8kR76Wdo9LUmg--14" value="INT" style="shape=partialRectangle;connectable=0;fillColor=none;top=0;left=0;bottom=0;right=0;align=center;spacingLeft=6;fontStyle=1;overflow=hidden;whiteSpace=wrap;html=1;" vertex="1" parent="5BOOuT8kR76Wdo9LUmg--2">
          <mxGeometry x="250" width="125" height="40" as="geometry">
            <mxRectangle width="125" height="40" as="alternateBounds" />
          </mxGeometry>
        </mxCell>
        <mxCell id="5BOOuT8kR76Wdo9LUmg--5" value="" style="shape=tableRow;horizontal=0;startSize=0;swimlaneHead=0;swimlaneBody=0;fillColor=none;collapsible=0;dropTarget=0;points=[[0,0.5],[1,0.5]];portConstraint=eastwest;top=0;left=0;right=0;bottom=0;" vertex="1" parent="5BOOuT8kR76Wdo9LUmg--1">
          <mxGeometry y="70" width="375" height="30" as="geometry" />
        </mxCell>
        <mxCell id="5BOOuT8kR76Wdo9LUmg--6" value="UNIQUE" style="shape=partialRectangle;connectable=0;fillColor=none;top=0;left=0;bottom=0;right=0;editable=1;overflow=hidden;whiteSpace=wrap;html=1;" vertex="1" parent="5BOOuT8kR76Wdo9LUmg--5">
          <mxGeometry width="125" height="30" as="geometry">
            <mxRectangle width="125" height="30" as="alternateBounds" />
          </mxGeometry>
        </mxCell>
        <mxCell id="5BOOuT8kR76Wdo9LUmg--7" value="CategoryName" style="shape=partialRectangle;connectable=0;fillColor=none;top=0;left=0;bottom=0;right=0;align=left;spacingLeft=6;overflow=hidden;whiteSpace=wrap;html=1;" vertex="1" parent="5BOOuT8kR76Wdo9LUmg--5">
          <mxGeometry x="125" width="125" height="30" as="geometry">
            <mxRectangle width="125" height="30" as="alternateBounds" />
          </mxGeometry>
        </mxCell>
        <mxCell id="5BOOuT8kR76Wdo9LUmg--15" value="VarChar(50)" style="shape=partialRectangle;connectable=0;fillColor=none;top=0;left=0;bottom=0;right=0;align=center;spacingLeft=6;overflow=hidden;whiteSpace=wrap;html=1;" vertex="1" parent="5BOOuT8kR76Wdo9LUmg--5">
          <mxGeometry x="250" width="125" height="30" as="geometry">
            <mxRectangle width="125" height="30" as="alternateBounds" />
          </mxGeometry>
        </mxCell>
        <mxCell id="5BOOuT8kR76Wdo9LUmg--32" value="Table User" style="shape=table;startSize=30;container=1;collapsible=1;childLayout=tableLayout;fixedRows=1;rowLines=0;fontStyle=1;align=center;resizeLast=1;html=1;" vertex="1" parent="1">
          <mxGeometry x="40" y="340" width="450" height="370" as="geometry" />
        </mxCell>
        <mxCell id="5BOOuT8kR76Wdo9LUmg--33" value="" style="shape=tableRow;horizontal=0;startSize=0;swimlaneHead=0;swimlaneBody=0;fillColor=none;collapsible=0;dropTarget=0;points=[[0,0.5],[1,0.5]];portConstraint=eastwest;top=0;left=0;right=0;bottom=1;" vertex="1" parent="5BOOuT8kR76Wdo9LUmg--32">
          <mxGeometry y="30" width="450" height="40" as="geometry" />
        </mxCell>
        <mxCell id="5BOOuT8kR76Wdo9LUmg--34" value="PRIMARY KEY&lt;br&gt;AUTO_INCREMENT" style="shape=partialRectangle;connectable=0;fillColor=none;top=0;left=0;bottom=0;right=0;fontStyle=1;overflow=hidden;whiteSpace=wrap;html=1;" vertex="1" parent="5BOOuT8kR76Wdo9LUmg--33">
          <mxGeometry width="150" height="40" as="geometry">
            <mxRectangle width="150" height="40" as="alternateBounds" />
          </mxGeometry>
        </mxCell>
        <mxCell id="5BOOuT8kR76Wdo9LUmg--35" value="UserID" style="shape=partialRectangle;connectable=0;fillColor=none;top=0;left=0;bottom=0;right=0;align=left;spacingLeft=6;fontStyle=5;overflow=hidden;whiteSpace=wrap;html=1;" vertex="1" parent="5BOOuT8kR76Wdo9LUmg--33">
          <mxGeometry x="150" width="150" height="40" as="geometry">
            <mxRectangle width="150" height="40" as="alternateBounds" />
          </mxGeometry>
        </mxCell>
        <mxCell id="5BOOuT8kR76Wdo9LUmg--45" value="INT" style="shape=partialRectangle;connectable=0;fillColor=none;top=0;left=0;bottom=0;right=0;align=center;spacingLeft=6;fontStyle=5;overflow=hidden;whiteSpace=wrap;html=1;" vertex="1" parent="5BOOuT8kR76Wdo9LUmg--33">
          <mxGeometry x="300" width="150" height="40" as="geometry">
            <mxRectangle width="150" height="40" as="alternateBounds" />
          </mxGeometry>
        </mxCell>
        <mxCell id="5BOOuT8kR76Wdo9LUmg--36" value="" style="shape=tableRow;horizontal=0;startSize=0;swimlaneHead=0;swimlaneBody=0;fillColor=none;collapsible=0;dropTarget=0;points=[[0,0.5],[1,0.5]];portConstraint=eastwest;top=0;left=0;right=0;bottom=0;" vertex="1" parent="5BOOuT8kR76Wdo9LUmg--32">
          <mxGeometry y="70" width="450" height="30" as="geometry" />
        </mxCell>
        <mxCell id="5BOOuT8kR76Wdo9LUmg--37" value="" style="shape=partialRectangle;connectable=0;fillColor=none;top=0;left=0;bottom=0;right=0;editable=1;overflow=hidden;whiteSpace=wrap;html=1;" vertex="1" parent="5BOOuT8kR76Wdo9LUmg--36">
          <mxGeometry width="150" height="30" as="geometry">
            <mxRectangle width="150" height="30" as="alternateBounds" />
          </mxGeometry>
        </mxCell>
        <mxCell id="5BOOuT8kR76Wdo9LUmg--38" value="FirstName" style="shape=partialRectangle;connectable=0;fillColor=none;top=0;left=0;bottom=0;right=0;align=left;spacingLeft=6;overflow=hidden;whiteSpace=wrap;html=1;" vertex="1" parent="5BOOuT8kR76Wdo9LUmg--36">
          <mxGeometry x="150" width="150" height="30" as="geometry">
            <mxRectangle width="150" height="30" as="alternateBounds" />
          </mxGeometry>
        </mxCell>
        <mxCell id="5BOOuT8kR76Wdo9LUmg--46" value="VARCHAR(100)" style="shape=partialRectangle;connectable=0;fillColor=none;top=0;left=0;bottom=0;right=0;align=center;spacingLeft=6;overflow=hidden;whiteSpace=wrap;html=1;" vertex="1" parent="5BOOuT8kR76Wdo9LUmg--36">
          <mxGeometry x="300" width="150" height="30" as="geometry">
            <mxRectangle width="150" height="30" as="alternateBounds" />
          </mxGeometry>
        </mxCell>
        <mxCell id="5BOOuT8kR76Wdo9LUmg--39" value="" style="shape=tableRow;horizontal=0;startSize=0;swimlaneHead=0;swimlaneBody=0;fillColor=none;collapsible=0;dropTarget=0;points=[[0,0.5],[1,0.5]];portConstraint=eastwest;top=0;left=0;right=0;bottom=0;" vertex="1" parent="5BOOuT8kR76Wdo9LUmg--32">
          <mxGeometry y="100" width="450" height="30" as="geometry" />
        </mxCell>
        <mxCell id="5BOOuT8kR76Wdo9LUmg--40" value="" style="shape=partialRectangle;connectable=0;fillColor=none;top=0;left=0;bottom=0;right=0;editable=1;overflow=hidden;whiteSpace=wrap;html=1;" vertex="1" parent="5BOOuT8kR76Wdo9LUmg--39">
          <mxGeometry width="150" height="30" as="geometry">
            <mxRectangle width="150" height="30" as="alternateBounds" />
          </mxGeometry>
        </mxCell>
        <mxCell id="5BOOuT8kR76Wdo9LUmg--41" value="LastName" style="shape=partialRectangle;connectable=0;fillColor=none;top=0;left=0;bottom=0;right=0;align=left;spacingLeft=6;overflow=hidden;whiteSpace=wrap;html=1;" vertex="1" parent="5BOOuT8kR76Wdo9LUmg--39">
          <mxGeometry x="150" width="150" height="30" as="geometry">
            <mxRectangle width="150" height="30" as="alternateBounds" />
          </mxGeometry>
        </mxCell>
        <mxCell id="5BOOuT8kR76Wdo9LUmg--47" value="VARCHAR(100)" style="shape=partialRectangle;connectable=0;fillColor=none;top=0;left=0;bottom=0;right=0;align=center;spacingLeft=6;overflow=hidden;whiteSpace=wrap;html=1;" vertex="1" parent="5BOOuT8kR76Wdo9LUmg--39">
          <mxGeometry x="300" width="150" height="30" as="geometry">
            <mxRectangle width="150" height="30" as="alternateBounds" />
          </mxGeometry>
        </mxCell>
        <mxCell id="5BOOuT8kR76Wdo9LUmg--57" style="shape=tableRow;horizontal=0;startSize=0;swimlaneHead=0;swimlaneBody=0;fillColor=none;collapsible=0;dropTarget=0;points=[[0,0.5],[1,0.5]];portConstraint=eastwest;top=0;left=0;right=0;bottom=0;" vertex="1" parent="5BOOuT8kR76Wdo9LUmg--32">
          <mxGeometry y="130" width="450" height="30" as="geometry" />
        </mxCell>
        <mxCell id="5BOOuT8kR76Wdo9LUmg--58" value="DEFAULT NULL" style="shape=partialRectangle;connectable=0;fillColor=none;top=0;left=0;bottom=0;right=0;editable=1;overflow=hidden;whiteSpace=wrap;html=1;" vertex="1" parent="5BOOuT8kR76Wdo9LUmg--57">
          <mxGeometry width="150" height="30" as="geometry">
            <mxRectangle width="150" height="30" as="alternateBounds" />
          </mxGeometry>
        </mxCell>
        <mxCell id="5BOOuT8kR76Wdo9LUmg--59" value="FakeName" style="shape=partialRectangle;connectable=0;fillColor=none;top=0;left=0;bottom=0;right=0;align=left;spacingLeft=6;overflow=hidden;whiteSpace=wrap;html=1;" vertex="1" parent="5BOOuT8kR76Wdo9LUmg--57">
          <mxGeometry x="150" width="150" height="30" as="geometry">
            <mxRectangle width="150" height="30" as="alternateBounds" />
          </mxGeometry>
        </mxCell>
        <mxCell id="5BOOuT8kR76Wdo9LUmg--60" value="VARCHAR(100)" style="shape=partialRectangle;connectable=0;fillColor=none;top=0;left=0;bottom=0;right=0;align=center;spacingLeft=6;overflow=hidden;whiteSpace=wrap;html=1;" vertex="1" parent="5BOOuT8kR76Wdo9LUmg--57">
          <mxGeometry x="300" width="150" height="30" as="geometry">
            <mxRectangle width="150" height="30" as="alternateBounds" />
          </mxGeometry>
        </mxCell>
        <mxCell id="5BOOuT8kR76Wdo9LUmg--53" style="shape=tableRow;horizontal=0;startSize=0;swimlaneHead=0;swimlaneBody=0;fillColor=none;collapsible=0;dropTarget=0;points=[[0,0.5],[1,0.5]];portConstraint=eastwest;top=0;left=0;right=0;bottom=0;" vertex="1" parent="5BOOuT8kR76Wdo9LUmg--32">
          <mxGeometry y="160" width="450" height="40" as="geometry" />
        </mxCell>
        <mxCell id="5BOOuT8kR76Wdo9LUmg--54" value="DEFAULT &#39;User&#39;" style="shape=partialRectangle;connectable=0;fillColor=none;top=0;left=0;bottom=0;right=0;editable=1;overflow=hidden;whiteSpace=wrap;html=1;" vertex="1" parent="5BOOuT8kR76Wdo9LUmg--53">
          <mxGeometry width="150" height="40" as="geometry">
            <mxRectangle width="150" height="40" as="alternateBounds" />
          </mxGeometry>
        </mxCell>
        <mxCell id="5BOOuT8kR76Wdo9LUmg--55" value="UserLevel" style="shape=partialRectangle;connectable=0;fillColor=none;top=0;left=0;bottom=0;right=0;align=left;spacingLeft=6;overflow=hidden;whiteSpace=wrap;html=1;" vertex="1" parent="5BOOuT8kR76Wdo9LUmg--53">
          <mxGeometry x="150" width="150" height="40" as="geometry">
            <mxRectangle width="150" height="40" as="alternateBounds" />
          </mxGeometry>
        </mxCell>
        <mxCell id="5BOOuT8kR76Wdo9LUmg--56" value="ENUM(&#39;SuperAdmin&#39;, &#39;Admin&#39;, &#39;Editor&#39;, &#39;User&#39;)" style="shape=partialRectangle;connectable=0;fillColor=none;top=0;left=0;bottom=0;right=0;align=center;spacingLeft=6;overflow=hidden;whiteSpace=wrap;html=1;" vertex="1" parent="5BOOuT8kR76Wdo9LUmg--53">
          <mxGeometry x="300" width="150" height="40" as="geometry">
            <mxRectangle width="150" height="40" as="alternateBounds" />
          </mxGeometry>
        </mxCell>
        <mxCell id="5BOOuT8kR76Wdo9LUmg--49" style="shape=tableRow;horizontal=0;startSize=0;swimlaneHead=0;swimlaneBody=0;fillColor=none;collapsible=0;dropTarget=0;points=[[0,0.5],[1,0.5]];portConstraint=eastwest;top=0;left=0;right=0;bottom=0;" vertex="1" parent="5BOOuT8kR76Wdo9LUmg--32">
          <mxGeometry y="200" width="450" height="30" as="geometry" />
        </mxCell>
        <mxCell id="5BOOuT8kR76Wdo9LUmg--50" value="UNIQUE" style="shape=partialRectangle;connectable=0;fillColor=none;top=0;left=0;bottom=0;right=0;editable=1;overflow=hidden;whiteSpace=wrap;html=1;" vertex="1" parent="5BOOuT8kR76Wdo9LUmg--49">
          <mxGeometry width="150" height="30" as="geometry">
            <mxRectangle width="150" height="30" as="alternateBounds" />
          </mxGeometry>
        </mxCell>
        <mxCell id="5BOOuT8kR76Wdo9LUmg--51" value="Email" style="shape=partialRectangle;connectable=0;fillColor=none;top=0;left=0;bottom=0;right=0;align=left;spacingLeft=6;overflow=hidden;whiteSpace=wrap;html=1;" vertex="1" parent="5BOOuT8kR76Wdo9LUmg--49">
          <mxGeometry x="150" width="150" height="30" as="geometry">
            <mxRectangle width="150" height="30" as="alternateBounds" />
          </mxGeometry>
        </mxCell>
        <mxCell id="5BOOuT8kR76Wdo9LUmg--52" value="VARCHAR(255)" style="shape=partialRectangle;connectable=0;fillColor=none;top=0;left=0;bottom=0;right=0;align=center;spacingLeft=6;overflow=hidden;whiteSpace=wrap;html=1;" vertex="1" parent="5BOOuT8kR76Wdo9LUmg--49">
          <mxGeometry x="300" width="150" height="30" as="geometry">
            <mxRectangle width="150" height="30" as="alternateBounds" />
          </mxGeometry>
        </mxCell>
        <mxCell id="5BOOuT8kR76Wdo9LUmg--42" value="" style="shape=tableRow;horizontal=0;startSize=0;swimlaneHead=0;swimlaneBody=0;fillColor=none;collapsible=0;dropTarget=0;points=[[0,0.5],[1,0.5]];portConstraint=eastwest;top=0;left=0;right=0;bottom=0;" vertex="1" parent="5BOOuT8kR76Wdo9LUmg--32">
          <mxGeometry y="230" width="450" height="30" as="geometry" />
        </mxCell>
        <mxCell id="5BOOuT8kR76Wdo9LUmg--43" value="" style="shape=partialRectangle;connectable=0;fillColor=none;top=0;left=0;bottom=0;right=0;editable=1;overflow=hidden;whiteSpace=wrap;html=1;" vertex="1" parent="5BOOuT8kR76Wdo9LUmg--42">
          <mxGeometry width="150" height="30" as="geometry">
            <mxRectangle width="150" height="30" as="alternateBounds" />
          </mxGeometry>
        </mxCell>
        <mxCell id="5BOOuT8kR76Wdo9LUmg--44" value="PasswordHash" style="shape=partialRectangle;connectable=0;fillColor=none;top=0;left=0;bottom=0;right=0;align=left;spacingLeft=6;overflow=hidden;whiteSpace=wrap;html=1;" vertex="1" parent="5BOOuT8kR76Wdo9LUmg--42">
          <mxGeometry x="150" width="150" height="30" as="geometry">
            <mxRectangle width="150" height="30" as="alternateBounds" />
          </mxGeometry>
        </mxCell>
        <mxCell id="5BOOuT8kR76Wdo9LUmg--48" value="VARCHAR(255)" style="shape=partialRectangle;connectable=0;fillColor=none;top=0;left=0;bottom=0;right=0;align=center;spacingLeft=6;overflow=hidden;whiteSpace=wrap;html=1;" vertex="1" parent="5BOOuT8kR76Wdo9LUmg--42">
          <mxGeometry x="300" width="150" height="30" as="geometry">
            <mxRectangle width="150" height="30" as="alternateBounds" />
          </mxGeometry>
        </mxCell>
        <mxCell id="5BOOuT8kR76Wdo9LUmg--65" style="shape=tableRow;horizontal=0;startSize=0;swimlaneHead=0;swimlaneBody=0;fillColor=none;collapsible=0;dropTarget=0;points=[[0,0.5],[1,0.5]];portConstraint=eastwest;top=0;left=0;right=0;bottom=0;" vertex="1" parent="5BOOuT8kR76Wdo9LUmg--32">
          <mxGeometry y="260" width="450" height="30" as="geometry" />
        </mxCell>
        <mxCell id="5BOOuT8kR76Wdo9LUmg--66" value="DEFAULT NULL" style="shape=partialRectangle;connectable=0;fillColor=none;top=0;left=0;bottom=0;right=0;editable=1;overflow=hidden;whiteSpace=wrap;html=1;" vertex="1" parent="5BOOuT8kR76Wdo9LUmg--65">
          <mxGeometry width="150" height="30" as="geometry">
            <mxRectangle width="150" height="30" as="alternateBounds" />
          </mxGeometry>
        </mxCell>
        <mxCell id="5BOOuT8kR76Wdo9LUmg--67" value="Phone" style="shape=partialRectangle;connectable=0;fillColor=none;top=0;left=0;bottom=0;right=0;align=left;spacingLeft=6;overflow=hidden;whiteSpace=wrap;html=1;" vertex="1" parent="5BOOuT8kR76Wdo9LUmg--65">
          <mxGeometry x="150" width="150" height="30" as="geometry">
            <mxRectangle width="150" height="30" as="alternateBounds" />
          </mxGeometry>
        </mxCell>
        <mxCell id="5BOOuT8kR76Wdo9LUmg--68" value="VARCHAR(20)" style="shape=partialRectangle;connectable=0;fillColor=none;top=0;left=0;bottom=0;right=0;align=center;spacingLeft=6;overflow=hidden;whiteSpace=wrap;html=1;" vertex="1" parent="5BOOuT8kR76Wdo9LUmg--65">
          <mxGeometry x="300" width="150" height="30" as="geometry">
            <mxRectangle width="150" height="30" as="alternateBounds" />
          </mxGeometry>
        </mxCell>
        <mxCell id="5BOOuT8kR76Wdo9LUmg--61" style="shape=tableRow;horizontal=0;startSize=0;swimlaneHead=0;swimlaneBody=0;fillColor=none;collapsible=0;dropTarget=0;points=[[0,0.5],[1,0.5]];portConstraint=eastwest;top=0;left=0;right=0;bottom=0;" vertex="1" parent="5BOOuT8kR76Wdo9LUmg--32">
          <mxGeometry y="290" width="450" height="40" as="geometry" />
        </mxCell>
        <mxCell id="5BOOuT8kR76Wdo9LUmg--62" value="DEFAULT &#39;../static/image/&lt;br&gt;user/defualt.jpg&lt;span style=&quot;background-color: transparent; color: light-dark(rgb(0, 0, 0), rgb(255, 255, 255));&quot;&gt;&#39;&lt;/span&gt;" style="shape=partialRectangle;connectable=0;fillColor=none;top=0;left=0;bottom=0;right=0;editable=1;overflow=hidden;whiteSpace=wrap;html=1;" vertex="1" parent="5BOOuT8kR76Wdo9LUmg--61">
          <mxGeometry width="150" height="40" as="geometry">
            <mxRectangle width="150" height="40" as="alternateBounds" />
          </mxGeometry>
        </mxCell>
        <mxCell id="5BOOuT8kR76Wdo9LUmg--63" value="ProfileImage" style="shape=partialRectangle;connectable=0;fillColor=none;top=0;left=0;bottom=0;right=0;align=left;spacingLeft=6;overflow=hidden;whiteSpace=wrap;html=1;" vertex="1" parent="5BOOuT8kR76Wdo9LUmg--61">
          <mxGeometry x="150" width="150" height="40" as="geometry">
            <mxRectangle width="150" height="40" as="alternateBounds" />
          </mxGeometry>
        </mxCell>
        <mxCell id="5BOOuT8kR76Wdo9LUmg--64" value="VARCHAR(255)" style="shape=partialRectangle;connectable=0;fillColor=none;top=0;left=0;bottom=0;right=0;align=center;spacingLeft=6;overflow=hidden;whiteSpace=wrap;html=1;" vertex="1" parent="5BOOuT8kR76Wdo9LUmg--61">
          <mxGeometry x="300" width="150" height="40" as="geometry">
            <mxRectangle width="150" height="40" as="alternateBounds" />
          </mxGeometry>
        </mxCell>
        <mxCell id="5BOOuT8kR76Wdo9LUmg--69" style="shape=tableRow;horizontal=0;startSize=0;swimlaneHead=0;swimlaneBody=0;fillColor=none;collapsible=0;dropTarget=0;points=[[0,0.5],[1,0.5]];portConstraint=eastwest;top=0;left=0;right=0;bottom=0;" vertex="1" parent="5BOOuT8kR76Wdo9LUmg--32">
          <mxGeometry y="330" width="450" height="40" as="geometry" />
        </mxCell>
        <mxCell id="5BOOuT8kR76Wdo9LUmg--70" value="DEFAULT CURRENT_TIMESTAMP" style="shape=partialRectangle;connectable=0;fillColor=none;top=0;left=0;bottom=0;right=0;editable=1;overflow=hidden;whiteSpace=wrap;html=1;" vertex="1" parent="5BOOuT8kR76Wdo9LUmg--69">
          <mxGeometry width="150" height="40" as="geometry">
            <mxRectangle width="150" height="40" as="alternateBounds" />
          </mxGeometry>
        </mxCell>
        <mxCell id="5BOOuT8kR76Wdo9LUmg--71" value="CreatedAt" style="shape=partialRectangle;connectable=0;fillColor=none;top=0;left=0;bottom=0;right=0;align=left;spacingLeft=6;overflow=hidden;whiteSpace=wrap;html=1;" vertex="1" parent="5BOOuT8kR76Wdo9LUmg--69">
          <mxGeometry x="150" width="150" height="40" as="geometry">
            <mxRectangle width="150" height="40" as="alternateBounds" />
          </mxGeometry>
        </mxCell>
        <mxCell id="5BOOuT8kR76Wdo9LUmg--72" value="TIMESTAMP" style="shape=partialRectangle;connectable=0;fillColor=none;top=0;left=0;bottom=0;right=0;align=center;spacingLeft=6;overflow=hidden;whiteSpace=wrap;html=1;" vertex="1" parent="5BOOuT8kR76Wdo9LUmg--69">
          <mxGeometry x="300" width="150" height="40" as="geometry">
            <mxRectangle width="150" height="40" as="alternateBounds" />
          </mxGeometry>
        </mxCell>
        <mxCell id="5BOOuT8kR76Wdo9LUmg--73" value="Table Term" style="shape=table;startSize=30;container=1;collapsible=1;childLayout=tableLayout;fixedRows=1;rowLines=0;fontStyle=1;align=center;resizeLast=1;html=1;" vertex="1" parent="1">
          <mxGeometry x="623" y="25" width="450" height="440" as="geometry" />
        </mxCell>
        <mxCell id="5BOOuT8kR76Wdo9LUmg--74" value="" style="shape=tableRow;horizontal=0;startSize=0;swimlaneHead=0;swimlaneBody=0;fillColor=none;collapsible=0;dropTarget=0;points=[[0,0.5],[1,0.5]];portConstraint=eastwest;top=0;left=0;right=0;bottom=1;" vertex="1" parent="5BOOuT8kR76Wdo9LUmg--73">
          <mxGeometry y="30" width="450" height="40" as="geometry" />
        </mxCell>
        <mxCell id="5BOOuT8kR76Wdo9LUmg--75" value="PRIMARY KEY&lt;br&gt;AUTO_INCREMENT" style="shape=partialRectangle;connectable=0;fillColor=none;top=0;left=0;bottom=0;right=0;fontStyle=1;overflow=hidden;whiteSpace=wrap;html=1;" vertex="1" parent="5BOOuT8kR76Wdo9LUmg--74">
          <mxGeometry width="150" height="40" as="geometry">
            <mxRectangle width="150" height="40" as="alternateBounds" />
          </mxGeometry>
        </mxCell>
        <mxCell id="5BOOuT8kR76Wdo9LUmg--76" value="TermID" style="shape=partialRectangle;connectable=0;fillColor=none;top=0;left=0;bottom=0;right=0;align=left;spacingLeft=6;fontStyle=5;overflow=hidden;whiteSpace=wrap;html=1;" vertex="1" parent="5BOOuT8kR76Wdo9LUmg--74">
          <mxGeometry x="150" width="150" height="40" as="geometry">
            <mxRectangle width="150" height="40" as="alternateBounds" />
          </mxGeometry>
        </mxCell>
        <mxCell id="5BOOuT8kR76Wdo9LUmg--77" value="INT" style="shape=partialRectangle;connectable=0;fillColor=none;top=0;left=0;bottom=0;right=0;align=center;spacingLeft=6;fontStyle=5;overflow=hidden;whiteSpace=wrap;html=1;" vertex="1" parent="5BOOuT8kR76Wdo9LUmg--74">
          <mxGeometry x="300" width="150" height="40" as="geometry">
            <mxRectangle width="150" height="40" as="alternateBounds" />
          </mxGeometry>
        </mxCell>
        <mxCell id="5BOOuT8kR76Wdo9LUmg--78" value="" style="shape=tableRow;horizontal=0;startSize=0;swimlaneHead=0;swimlaneBody=0;fillColor=none;collapsible=0;dropTarget=0;points=[[0,0.5],[1,0.5]];portConstraint=eastwest;top=0;left=0;right=0;bottom=0;" vertex="1" parent="5BOOuT8kR76Wdo9LUmg--73">
          <mxGeometry y="70" width="450" height="30" as="geometry" />
        </mxCell>
        <mxCell id="5BOOuT8kR76Wdo9LUmg--79" value="UNIQUE" style="shape=partialRectangle;connectable=0;fillColor=none;top=0;left=0;bottom=0;right=0;editable=1;overflow=hidden;whiteSpace=wrap;html=1;" vertex="1" parent="5BOOuT8kR76Wdo9LUmg--78">
          <mxGeometry width="150" height="30" as="geometry">
            <mxRectangle width="150" height="30" as="alternateBounds" />
          </mxGeometry>
        </mxCell>
        <mxCell id="5BOOuT8kR76Wdo9LUmg--80" value="Term" style="shape=partialRectangle;connectable=0;fillColor=none;top=0;left=0;bottom=0;right=0;align=left;spacingLeft=6;overflow=hidden;whiteSpace=wrap;html=1;" vertex="1" parent="5BOOuT8kR76Wdo9LUmg--78">
          <mxGeometry x="150" width="150" height="30" as="geometry">
            <mxRectangle width="150" height="30" as="alternateBounds" />
          </mxGeometry>
        </mxCell>
        <mxCell id="5BOOuT8kR76Wdo9LUmg--81" value="VARCHAR(255&lt;span style=&quot;background-color: transparent; color: light-dark(rgb(0, 0, 0), rgb(255, 255, 255));&quot;&gt;)&lt;/span&gt;" style="shape=partialRectangle;connectable=0;fillColor=none;top=0;left=0;bottom=0;right=0;align=center;spacingLeft=6;overflow=hidden;whiteSpace=wrap;html=1;" vertex="1" parent="5BOOuT8kR76Wdo9LUmg--78">
          <mxGeometry x="300" width="150" height="30" as="geometry">
            <mxRectangle width="150" height="30" as="alternateBounds" />
          </mxGeometry>
        </mxCell>
        <mxCell id="5BOOuT8kR76Wdo9LUmg--82" value="" style="shape=tableRow;horizontal=0;startSize=0;swimlaneHead=0;swimlaneBody=0;fillColor=none;collapsible=0;dropTarget=0;points=[[0,0.5],[1,0.5]];portConstraint=eastwest;top=0;left=0;right=0;bottom=0;" vertex="1" parent="5BOOuT8kR76Wdo9LUmg--73">
          <mxGeometry y="100" width="450" height="30" as="geometry" />
        </mxCell>
        <mxCell id="5BOOuT8kR76Wdo9LUmg--83" value="" style="shape=partialRectangle;connectable=0;fillColor=none;top=0;left=0;bottom=0;right=0;editable=1;overflow=hidden;whiteSpace=wrap;html=1;" vertex="1" parent="5BOOuT8kR76Wdo9LUmg--82">
          <mxGeometry width="150" height="30" as="geometry">
            <mxRectangle width="150" height="30" as="alternateBounds" />
          </mxGeometry>
        </mxCell>
        <mxCell id="5BOOuT8kR76Wdo9LUmg--84" value="TermExplanation" style="shape=partialRectangle;connectable=0;fillColor=none;top=0;left=0;bottom=0;right=0;align=left;spacingLeft=6;overflow=hidden;whiteSpace=wrap;html=1;" vertex="1" parent="5BOOuT8kR76Wdo9LUmg--82">
          <mxGeometry x="150" width="150" height="30" as="geometry">
            <mxRectangle width="150" height="30" as="alternateBounds" />
          </mxGeometry>
        </mxCell>
        <mxCell id="5BOOuT8kR76Wdo9LUmg--85" value="TEXT" style="shape=partialRectangle;connectable=0;fillColor=none;top=0;left=0;bottom=0;right=0;align=center;spacingLeft=6;overflow=hidden;whiteSpace=wrap;html=1;" vertex="1" parent="5BOOuT8kR76Wdo9LUmg--82">
          <mxGeometry x="300" width="150" height="30" as="geometry">
            <mxRectangle width="150" height="30" as="alternateBounds" />
          </mxGeometry>
        </mxCell>
        <mxCell id="5BOOuT8kR76Wdo9LUmg--86" style="shape=tableRow;horizontal=0;startSize=0;swimlaneHead=0;swimlaneBody=0;fillColor=none;collapsible=0;dropTarget=0;points=[[0,0.5],[1,0.5]];portConstraint=eastwest;top=0;left=0;right=0;bottom=0;" vertex="1" parent="5BOOuT8kR76Wdo9LUmg--73">
          <mxGeometry y="130" width="450" height="30" as="geometry" />
        </mxCell>
        <mxCell id="5BOOuT8kR76Wdo9LUmg--87" value="DEFAULT NULL" style="shape=partialRectangle;connectable=0;fillColor=none;top=0;left=0;bottom=0;right=0;editable=1;overflow=hidden;whiteSpace=wrap;html=1;" vertex="1" parent="5BOOuT8kR76Wdo9LUmg--86">
          <mxGeometry width="150" height="30" as="geometry">
            <mxRectangle width="150" height="30" as="alternateBounds" />
          </mxGeometry>
        </mxCell>
        <mxCell id="5BOOuT8kR76Wdo9LUmg--88" value="TermAcronym" style="shape=partialRectangle;connectable=0;fillColor=none;top=0;left=0;bottom=0;right=0;align=left;spacingLeft=6;overflow=hidden;whiteSpace=wrap;html=1;" vertex="1" parent="5BOOuT8kR76Wdo9LUmg--86">
          <mxGeometry x="150" width="150" height="30" as="geometry">
            <mxRectangle width="150" height="30" as="alternateBounds" />
          </mxGeometry>
        </mxCell>
        <mxCell id="5BOOuT8kR76Wdo9LUmg--89" value="VARCHAR(50)" style="shape=partialRectangle;connectable=0;fillColor=none;top=0;left=0;bottom=0;right=0;align=center;spacingLeft=6;overflow=hidden;whiteSpace=wrap;html=1;" vertex="1" parent="5BOOuT8kR76Wdo9LUmg--86">
          <mxGeometry x="300" width="150" height="30" as="geometry">
            <mxRectangle width="150" height="30" as="alternateBounds" />
          </mxGeometry>
        </mxCell>
        <mxCell id="5BOOuT8kR76Wdo9LUmg--94" style="shape=tableRow;horizontal=0;startSize=0;swimlaneHead=0;swimlaneBody=0;fillColor=none;collapsible=0;dropTarget=0;points=[[0,0.5],[1,0.5]];portConstraint=eastwest;top=0;left=0;right=0;bottom=0;" vertex="1" parent="5BOOuT8kR76Wdo9LUmg--73">
          <mxGeometry y="160" width="450" height="30" as="geometry" />
        </mxCell>
        <mxCell id="5BOOuT8kR76Wdo9LUmg--95" value="DEFAULT NULL" style="shape=partialRectangle;connectable=0;fillColor=none;top=0;left=0;bottom=0;right=0;editable=1;overflow=hidden;whiteSpace=wrap;html=1;" vertex="1" parent="5BOOuT8kR76Wdo9LUmg--94">
          <mxGeometry width="150" height="30" as="geometry">
            <mxRectangle width="150" height="30" as="alternateBounds" />
          </mxGeometry>
        </mxCell>
        <mxCell id="5BOOuT8kR76Wdo9LUmg--96" value="TermStory" style="shape=partialRectangle;connectable=0;fillColor=none;top=0;left=0;bottom=0;right=0;align=left;spacingLeft=6;overflow=hidden;whiteSpace=wrap;html=1;" vertex="1" parent="5BOOuT8kR76Wdo9LUmg--94">
          <mxGeometry x="150" width="150" height="30" as="geometry">
            <mxRectangle width="150" height="30" as="alternateBounds" />
          </mxGeometry>
        </mxCell>
        <mxCell id="5BOOuT8kR76Wdo9LUmg--97" value="VARCHAR(255)" style="shape=partialRectangle;connectable=0;fillColor=none;top=0;left=0;bottom=0;right=0;align=center;spacingLeft=6;overflow=hidden;whiteSpace=wrap;html=1;" vertex="1" parent="5BOOuT8kR76Wdo9LUmg--94">
          <mxGeometry x="300" width="150" height="30" as="geometry">
            <mxRectangle width="150" height="30" as="alternateBounds" />
          </mxGeometry>
        </mxCell>
        <mxCell id="5BOOuT8kR76Wdo9LUmg--98" value="" style="shape=tableRow;horizontal=0;startSize=0;swimlaneHead=0;swimlaneBody=0;fillColor=none;collapsible=0;dropTarget=0;points=[[0,0.5],[1,0.5]];portConstraint=eastwest;top=0;left=0;right=0;bottom=0;" vertex="1" parent="5BOOuT8kR76Wdo9LUmg--73">
          <mxGeometry y="190" width="450" height="30" as="geometry" />
        </mxCell>
        <mxCell id="5BOOuT8kR76Wdo9LUmg--99" value="&lt;b&gt;FOREIGN KEY&lt;/b&gt;" style="shape=partialRectangle;connectable=0;fillColor=none;top=0;left=0;bottom=0;right=0;editable=1;overflow=hidden;whiteSpace=wrap;html=1;" vertex="1" parent="5BOOuT8kR76Wdo9LUmg--98">
          <mxGeometry width="150" height="30" as="geometry">
            <mxRectangle width="150" height="30" as="alternateBounds" />
          </mxGeometry>
        </mxCell>
        <mxCell id="5BOOuT8kR76Wdo9LUmg--100" value="&lt;b&gt;CategoryID&lt;/b&gt;" style="shape=partialRectangle;connectable=0;fillColor=none;top=0;left=0;bottom=0;right=0;align=left;spacingLeft=6;overflow=hidden;whiteSpace=wrap;html=1;" vertex="1" parent="5BOOuT8kR76Wdo9LUmg--98">
          <mxGeometry x="150" width="150" height="30" as="geometry">
            <mxRectangle width="150" height="30" as="alternateBounds" />
          </mxGeometry>
        </mxCell>
        <mxCell id="5BOOuT8kR76Wdo9LUmg--101" value="&lt;b&gt;INT&lt;/b&gt;" style="shape=partialRectangle;connectable=0;fillColor=none;top=0;left=0;bottom=0;right=0;align=center;spacingLeft=6;overflow=hidden;whiteSpace=wrap;html=1;" vertex="1" parent="5BOOuT8kR76Wdo9LUmg--98">
          <mxGeometry x="300" width="150" height="30" as="geometry">
            <mxRectangle width="150" height="30" as="alternateBounds" />
          </mxGeometry>
        </mxCell>
        <mxCell id="5BOOuT8kR76Wdo9LUmg--102" style="shape=tableRow;horizontal=0;startSize=0;swimlaneHead=0;swimlaneBody=0;fillColor=none;collapsible=0;dropTarget=0;points=[[0,0.5],[1,0.5]];portConstraint=eastwest;top=0;left=0;right=0;bottom=0;" vertex="1" parent="5BOOuT8kR76Wdo9LUmg--73">
          <mxGeometry y="220" width="450" height="30" as="geometry" />
        </mxCell>
        <mxCell id="5BOOuT8kR76Wdo9LUmg--103" value="DEFAULT NULL" style="shape=partialRectangle;connectable=0;fillColor=none;top=0;left=0;bottom=0;right=0;editable=1;overflow=hidden;whiteSpace=wrap;html=1;" vertex="1" parent="5BOOuT8kR76Wdo9LUmg--102">
          <mxGeometry width="150" height="30" as="geometry">
            <mxRectangle width="150" height="30" as="alternateBounds" />
          </mxGeometry>
        </mxCell>
        <mxCell id="5BOOuT8kR76Wdo9LUmg--104" value="InitialLetters" style="shape=partialRectangle;connectable=0;fillColor=none;top=0;left=0;bottom=0;right=0;align=left;spacingLeft=6;overflow=hidden;whiteSpace=wrap;html=1;" vertex="1" parent="5BOOuT8kR76Wdo9LUmg--102">
          <mxGeometry x="150" width="150" height="30" as="geometry">
            <mxRectangle width="150" height="30" as="alternateBounds" />
          </mxGeometry>
        </mxCell>
        <mxCell id="5BOOuT8kR76Wdo9LUmg--105" value="CHAR(4)" style="shape=partialRectangle;connectable=0;fillColor=none;top=0;left=0;bottom=0;right=0;align=center;spacingLeft=6;overflow=hidden;whiteSpace=wrap;html=1;" vertex="1" parent="5BOOuT8kR76Wdo9LUmg--102">
          <mxGeometry x="300" width="150" height="30" as="geometry">
            <mxRectangle width="150" height="30" as="alternateBounds" />
          </mxGeometry>
        </mxCell>
        <mxCell id="5BOOuT8kR76Wdo9LUmg--106" style="shape=tableRow;horizontal=0;startSize=0;swimlaneHead=0;swimlaneBody=0;fillColor=none;collapsible=0;dropTarget=0;points=[[0,0.5],[1,0.5]];portConstraint=eastwest;top=0;left=0;right=0;bottom=0;" vertex="1" parent="5BOOuT8kR76Wdo9LUmg--73">
          <mxGeometry y="250" width="450" height="40" as="geometry" />
        </mxCell>
        <mxCell id="5BOOuT8kR76Wdo9LUmg--107" value="CHECK (TechFactor BETWEEN 1 AND 5)" style="shape=partialRectangle;connectable=0;fillColor=none;top=0;left=0;bottom=0;right=0;editable=1;overflow=hidden;whiteSpace=wrap;html=1;" vertex="1" parent="5BOOuT8kR76Wdo9LUmg--106">
          <mxGeometry width="150" height="40" as="geometry">
            <mxRectangle width="150" height="40" as="alternateBounds" />
          </mxGeometry>
        </mxCell>
        <mxCell id="5BOOuT8kR76Wdo9LUmg--108" value="TechFactor" style="shape=partialRectangle;connectable=0;fillColor=none;top=0;left=0;bottom=0;right=0;align=left;spacingLeft=6;overflow=hidden;whiteSpace=wrap;html=1;" vertex="1" parent="5BOOuT8kR76Wdo9LUmg--106">
          <mxGeometry x="150" width="150" height="40" as="geometry">
            <mxRectangle width="150" height="40" as="alternateBounds" />
          </mxGeometry>
        </mxCell>
        <mxCell id="5BOOuT8kR76Wdo9LUmg--109" value="INT" style="shape=partialRectangle;connectable=0;fillColor=none;top=0;left=0;bottom=0;right=0;align=center;spacingLeft=6;overflow=hidden;whiteSpace=wrap;html=1;" vertex="1" parent="5BOOuT8kR76Wdo9LUmg--106">
          <mxGeometry x="300" width="150" height="40" as="geometry">
            <mxRectangle width="150" height="40" as="alternateBounds" />
          </mxGeometry>
        </mxCell>
        <mxCell id="5BOOuT8kR76Wdo9LUmg--110" style="shape=tableRow;horizontal=0;startSize=0;swimlaneHead=0;swimlaneBody=0;fillColor=none;collapsible=0;dropTarget=0;points=[[0,0.5],[1,0.5]];portConstraint=eastwest;top=0;left=0;right=0;bottom=0;" vertex="1" parent="5BOOuT8kR76Wdo9LUmg--73">
          <mxGeometry y="290" width="450" height="40" as="geometry" />
        </mxCell>
        <mxCell id="5BOOuT8kR76Wdo9LUmg--111" value="DEFAULT CURRENT_TIMESTAMP" style="shape=partialRectangle;connectable=0;fillColor=none;top=0;left=0;bottom=0;right=0;editable=1;overflow=hidden;whiteSpace=wrap;html=1;" vertex="1" parent="5BOOuT8kR76Wdo9LUmg--110">
          <mxGeometry width="150" height="40" as="geometry">
            <mxRectangle width="150" height="40" as="alternateBounds" />
          </mxGeometry>
        </mxCell>
        <mxCell id="5BOOuT8kR76Wdo9LUmg--112" value="CreatedAt" style="shape=partialRectangle;connectable=0;fillColor=none;top=0;left=0;bottom=0;right=0;align=left;spacingLeft=6;overflow=hidden;whiteSpace=wrap;html=1;" vertex="1" parent="5BOOuT8kR76Wdo9LUmg--110">
          <mxGeometry x="150" width="150" height="40" as="geometry">
            <mxRectangle width="150" height="40" as="alternateBounds" />
          </mxGeometry>
        </mxCell>
        <mxCell id="5BOOuT8kR76Wdo9LUmg--113" value="TIMESTAMP" style="shape=partialRectangle;connectable=0;fillColor=none;top=0;left=0;bottom=0;right=0;align=center;spacingLeft=6;overflow=hidden;whiteSpace=wrap;html=1;" vertex="1" parent="5BOOuT8kR76Wdo9LUmg--110">
          <mxGeometry x="300" width="150" height="40" as="geometry">
            <mxRectangle width="150" height="40" as="alternateBounds" />
          </mxGeometry>
        </mxCell>
        <mxCell id="5BOOuT8kR76Wdo9LUmg--114" style="shape=tableRow;horizontal=0;startSize=0;swimlaneHead=0;swimlaneBody=0;fillColor=none;collapsible=0;dropTarget=0;points=[[0,0.5],[1,0.5]];portConstraint=eastwest;top=0;left=0;right=0;bottom=0;" vertex="1" parent="5BOOuT8kR76Wdo9LUmg--73">
          <mxGeometry y="330" width="450" height="70" as="geometry" />
        </mxCell>
        <mxCell id="5BOOuT8kR76Wdo9LUmg--115" value="DEFAULT CURRENT_TIMESTAMP ON UPDATE CURRENT_TIMESTAMP" style="shape=partialRectangle;connectable=0;fillColor=none;top=0;left=0;bottom=0;right=0;editable=1;overflow=hidden;whiteSpace=wrap;html=1;" vertex="1" parent="5BOOuT8kR76Wdo9LUmg--114">
          <mxGeometry width="150" height="70" as="geometry">
            <mxRectangle width="150" height="70" as="alternateBounds" />
          </mxGeometry>
        </mxCell>
        <mxCell id="5BOOuT8kR76Wdo9LUmg--116" value="UpdatedAt" style="shape=partialRectangle;connectable=0;fillColor=none;top=0;left=0;bottom=0;right=0;align=left;spacingLeft=6;overflow=hidden;whiteSpace=wrap;html=1;" vertex="1" parent="5BOOuT8kR76Wdo9LUmg--114">
          <mxGeometry x="150" width="150" height="70" as="geometry">
            <mxRectangle width="150" height="70" as="alternateBounds" />
          </mxGeometry>
        </mxCell>
        <mxCell id="5BOOuT8kR76Wdo9LUmg--117" value="TIMESTAMP" style="shape=partialRectangle;connectable=0;fillColor=none;top=0;left=0;bottom=0;right=0;align=center;spacingLeft=6;overflow=hidden;whiteSpace=wrap;html=1;" vertex="1" parent="5BOOuT8kR76Wdo9LUmg--114">
          <mxGeometry x="300" width="150" height="70" as="geometry">
            <mxRectangle width="150" height="70" as="alternateBounds" />
          </mxGeometry>
        </mxCell>
        <mxCell id="5BOOuT8kR76Wdo9LUmg--118" style="shape=tableRow;horizontal=0;startSize=0;swimlaneHead=0;swimlaneBody=0;fillColor=none;collapsible=0;dropTarget=0;points=[[0,0.5],[1,0.5]];portConstraint=eastwest;top=0;left=0;right=0;bottom=0;" vertex="1" parent="5BOOuT8kR76Wdo9LUmg--73">
          <mxGeometry y="400" width="450" height="40" as="geometry" />
        </mxCell>
        <mxCell id="5BOOuT8kR76Wdo9LUmg--119" value="&lt;b&gt;FOREIGN KEY&lt;/b&gt;" style="shape=partialRectangle;connectable=0;fillColor=none;top=0;left=0;bottom=0;right=0;editable=1;overflow=hidden;whiteSpace=wrap;html=1;" vertex="1" parent="5BOOuT8kR76Wdo9LUmg--118">
          <mxGeometry width="150" height="40" as="geometry">
            <mxRectangle width="150" height="40" as="alternateBounds" />
          </mxGeometry>
        </mxCell>
        <mxCell id="5BOOuT8kR76Wdo9LUmg--120" value="&lt;b&gt;CreatorID&lt;/b&gt;" style="shape=partialRectangle;connectable=0;fillColor=none;top=0;left=0;bottom=0;right=0;align=left;spacingLeft=6;overflow=hidden;whiteSpace=wrap;html=1;" vertex="1" parent="5BOOuT8kR76Wdo9LUmg--118">
          <mxGeometry x="150" width="150" height="40" as="geometry">
            <mxRectangle width="150" height="40" as="alternateBounds" />
          </mxGeometry>
        </mxCell>
        <mxCell id="5BOOuT8kR76Wdo9LUmg--121" value="&lt;b&gt;INT&lt;/b&gt;" style="shape=partialRectangle;connectable=0;fillColor=none;top=0;left=0;bottom=0;right=0;align=center;spacingLeft=6;overflow=hidden;whiteSpace=wrap;html=1;" vertex="1" parent="5BOOuT8kR76Wdo9LUmg--118">
          <mxGeometry x="300" width="150" height="40" as="geometry">
            <mxRectangle width="150" height="40" as="alternateBounds" />
          </mxGeometry>
        </mxCell>
        <mxCell id="5BOOuT8kR76Wdo9LUmg--122" value="Table Image" style="shape=table;startSize=30;container=1;collapsible=1;childLayout=tableLayout;fixedRows=1;rowLines=0;fontStyle=1;align=center;resizeLast=1;html=1;" vertex="1" parent="1">
          <mxGeometry x="40" y="14" width="375" height="130" as="geometry" />
        </mxCell>
        <mxCell id="5BOOuT8kR76Wdo9LUmg--123" value="" style="shape=tableRow;horizontal=0;startSize=0;swimlaneHead=0;swimlaneBody=0;fillColor=none;collapsible=0;dropTarget=0;points=[[0,0.5],[1,0.5]];portConstraint=eastwest;top=0;left=0;right=0;bottom=1;" vertex="1" parent="5BOOuT8kR76Wdo9LUmg--122">
          <mxGeometry y="30" width="375" height="40" as="geometry" />
        </mxCell>
        <mxCell id="5BOOuT8kR76Wdo9LUmg--124" value="PRIMARY KEY&lt;br&gt;AUTO_INCREMENT" style="shape=partialRectangle;connectable=0;fillColor=none;top=0;left=0;bottom=0;right=0;fontStyle=1;overflow=hidden;whiteSpace=wrap;html=1;" vertex="1" parent="5BOOuT8kR76Wdo9LUmg--123">
          <mxGeometry width="125" height="40" as="geometry">
            <mxRectangle width="125" height="40" as="alternateBounds" />
          </mxGeometry>
        </mxCell>
        <mxCell id="5BOOuT8kR76Wdo9LUmg--125" value="ImageID" style="shape=partialRectangle;connectable=0;fillColor=none;top=0;left=0;bottom=0;right=0;align=left;spacingLeft=6;fontStyle=5;overflow=hidden;whiteSpace=wrap;html=1;" vertex="1" parent="5BOOuT8kR76Wdo9LUmg--123">
          <mxGeometry x="125" width="125" height="40" as="geometry">
            <mxRectangle width="125" height="40" as="alternateBounds" />
          </mxGeometry>
        </mxCell>
        <mxCell id="5BOOuT8kR76Wdo9LUmg--126" value="INT" style="shape=partialRectangle;connectable=0;fillColor=none;top=0;left=0;bottom=0;right=0;align=center;spacingLeft=6;fontStyle=1;overflow=hidden;whiteSpace=wrap;html=1;" vertex="1" parent="5BOOuT8kR76Wdo9LUmg--123">
          <mxGeometry x="250" width="125" height="40" as="geometry">
            <mxRectangle width="125" height="40" as="alternateBounds" />
          </mxGeometry>
        </mxCell>
        <mxCell id="5BOOuT8kR76Wdo9LUmg--127" value="" style="shape=tableRow;horizontal=0;startSize=0;swimlaneHead=0;swimlaneBody=0;fillColor=none;collapsible=0;dropTarget=0;points=[[0,0.5],[1,0.5]];portConstraint=eastwest;top=0;left=0;right=0;bottom=0;" vertex="1" parent="5BOOuT8kR76Wdo9LUmg--122">
          <mxGeometry y="70" width="375" height="30" as="geometry" />
        </mxCell>
        <mxCell id="5BOOuT8kR76Wdo9LUmg--128" value="INDEX" style="shape=partialRectangle;connectable=0;fillColor=none;top=0;left=0;bottom=0;right=0;editable=1;overflow=hidden;whiteSpace=wrap;html=1;" vertex="1" parent="5BOOuT8kR76Wdo9LUmg--127">
          <mxGeometry width="125" height="30" as="geometry">
            <mxRectangle width="125" height="30" as="alternateBounds" />
          </mxGeometry>
        </mxCell>
        <mxCell id="5BOOuT8kR76Wdo9LUmg--129" value="TermID" style="shape=partialRectangle;connectable=0;fillColor=none;top=0;left=0;bottom=0;right=0;align=left;spacingLeft=6;overflow=hidden;whiteSpace=wrap;html=1;" vertex="1" parent="5BOOuT8kR76Wdo9LUmg--127">
          <mxGeometry x="125" width="125" height="30" as="geometry">
            <mxRectangle width="125" height="30" as="alternateBounds" />
          </mxGeometry>
        </mxCell>
        <mxCell id="5BOOuT8kR76Wdo9LUmg--130" value="INT" style="shape=partialRectangle;connectable=0;fillColor=none;top=0;left=0;bottom=0;right=0;align=center;spacingLeft=6;overflow=hidden;whiteSpace=wrap;html=1;" vertex="1" parent="5BOOuT8kR76Wdo9LUmg--127">
          <mxGeometry x="250" width="125" height="30" as="geometry">
            <mxRectangle width="125" height="30" as="alternateBounds" />
          </mxGeometry>
        </mxCell>
        <mxCell id="5BOOuT8kR76Wdo9LUmg--131" style="shape=tableRow;horizontal=0;startSize=0;swimlaneHead=0;swimlaneBody=0;fillColor=none;collapsible=0;dropTarget=0;points=[[0,0.5],[1,0.5]];portConstraint=eastwest;top=0;left=0;right=0;bottom=0;" vertex="1" parent="5BOOuT8kR76Wdo9LUmg--122">
          <mxGeometry y="100" width="375" height="30" as="geometry" />
        </mxCell>
        <mxCell id="5BOOuT8kR76Wdo9LUmg--132" style="shape=partialRectangle;connectable=0;fillColor=none;top=0;left=0;bottom=0;right=0;editable=1;overflow=hidden;whiteSpace=wrap;html=1;" vertex="1" parent="5BOOuT8kR76Wdo9LUmg--131">
          <mxGeometry width="125" height="30" as="geometry">
            <mxRectangle width="125" height="30" as="alternateBounds" />
          </mxGeometry>
        </mxCell>
        <mxCell id="5BOOuT8kR76Wdo9LUmg--133" value="Image" style="shape=partialRectangle;connectable=0;fillColor=none;top=0;left=0;bottom=0;right=0;align=left;spacingLeft=6;overflow=hidden;whiteSpace=wrap;html=1;" vertex="1" parent="5BOOuT8kR76Wdo9LUmg--131">
          <mxGeometry x="125" width="125" height="30" as="geometry">
            <mxRectangle width="125" height="30" as="alternateBounds" />
          </mxGeometry>
        </mxCell>
        <mxCell id="5BOOuT8kR76Wdo9LUmg--134" value="VARCHAR(255)" style="shape=partialRectangle;connectable=0;fillColor=none;top=0;left=0;bottom=0;right=0;align=center;spacingLeft=6;overflow=hidden;whiteSpace=wrap;html=1;" vertex="1" parent="5BOOuT8kR76Wdo9LUmg--131">
          <mxGeometry x="250" width="125" height="30" as="geometry">
            <mxRectangle width="125" height="30" as="alternateBounds" />
          </mxGeometry>
        </mxCell>
        <mxCell id="5BOOuT8kR76Wdo9LUmg--135" style="edgeStyle=none;curved=1;rounded=0;orthogonalLoop=1;jettySize=auto;html=1;fontSize=12;startSize=8;endSize=8;exitX=0;exitY=0.5;exitDx=0;exitDy=0;entryX=1;entryY=0.5;entryDx=0;entryDy=0;endArrow=none;startFill=0;" edge="1" parent="1" source="5BOOuT8kR76Wdo9LUmg--98" target="5BOOuT8kR76Wdo9LUmg--2">
          <mxGeometry relative="1" as="geometry" />
        </mxCell>
        <mxCell id="5BOOuT8kR76Wdo9LUmg--136" style="edgeStyle=none;curved=1;rounded=0;orthogonalLoop=1;jettySize=auto;html=1;fontSize=12;startSize=8;endSize=8;entryX=1;entryY=0.5;entryDx=0;entryDy=0;exitX=0;exitY=0.5;exitDx=0;exitDy=0;endArrow=none;startFill=0;" edge="1" parent="1" source="5BOOuT8kR76Wdo9LUmg--118" target="5BOOuT8kR76Wdo9LUmg--33">
          <mxGeometry relative="1" as="geometry" />
        </mxCell>
      </root>
    </mxGraphModel>
  </diagram>
</mxfile>
